<?xml version="1.0" encoding="utf-8"?>
<!-- Generator: Adobe Illustrator 24.1.2, SVG Export Plug-In . SVG Version: 6.00 Build 0)  -->
<svg version="1.1" id="圖層_1" xmlns="http://www.w3.org/2000/svg" xmlns:xlink="http://www.w3.org/1999/xlink" x="0px" y="0px"
	 viewBox="0 0 128 128" style="enable-background:new 0 0 128 128;" xml:space="preserve">
<style type="text/css">
	.st0{fill:#E8B800;}
	.st1{fill:none;stroke:#6B4C00;stroke-width:2;stroke-miterlimit:10;}
	.st2{fill:#6B4C00;}
</style>
<rect y="0" class="st0" width="128" height="128"/>
<rect x="6.5" y="6.5" class="st1" width="114.9" height="114.9"/>
<g transform="translate(343.2,828.3) scale(1,-1)">
	<path class="st2" d="M-277.7,789.6c-0.6-1.5-2.2-4.5-4.6-8.8c-2.5-4.3-6.7-7.8-12.8-10.3c-6.1-2.5-11.5-3.8-16.4-3.8
		c-5.5-0.1-8.8,0.9-9.9,3s-1.6,3.5-1.6,4.4v0.4c0,0.2,0,0.4,0,0.5c0,0.3,0.2,0.5,0.7,0.5c0.1,0,0.5,0,1-0.1c0.6-0.1,1.4-0.1,2.5,0
		l6,0.3c8.6,0.4,15,2.3,19.2,5.7c4.2,3.5,6.7,7.4,7.5,11.8l0.5,2.6c0.1,0.7,0.2,1.3,0.1,1.6c-0.1,0.4-0.3,0.5-0.6,0.5l-1.1-0.1
		l-4.7-0.1l-3.8-0.3l-4.2-0.4c-2.3-0.2-4.2-0.5-5.6-0.9c-1.5-0.4-2.5-0.5-3-0.5c-1,0.1-1.7,0.4-2,1c-0.4,0.6-0.6,1.2-0.6,1.9
		c0,0.7,0.1,1.3,0.5,1.9c0.2,0.4,1.2,1.3,2.8,2.7s3.1,2,4.5,1.7l1.3-0.3c0.4-0.1,1.1-0.2,1.9-0.2c0.9,0,1.6,0,2.3,0l3,0.2h4.1
		l3.2,0.2c1.4,0.1,2.1,0.1,2.2,0.2c0.1,0.1,0.2,0.2,0.2,0.5c0,0.2,0,0.4,0,0.4l-0.1,0.8l-0.1,4.3l-0.3,2.9c-0.1,0.1-0.1,0.5,0,1.3
		s0.3,1.5,0.7,2s1,0.9,1.8,1.1c0.8,0.2,1.4,0.3,1.7,0.3c3-0.3,4.8-1.2,5.5-2.6c0.7-1.4,1.1-2.7,1.1-3.9l-0.1-5.4v-1
		c0-0.4,0-0.7,0.1-0.7c0.1-0.1,0.2-0.1,0.5,0l2,0.1l3.1-0.1l6.6-0.2l9.8-0.7c1.7-0.2,2.9-0.4,3.8-0.6c0.9-0.2,1.3-1,1.3-2.3
		c-0.1-1.1-0.6-2-1.6-2.8c-1-0.8-6.1-1-15.4-0.7l-5.8,0.2l-3.3,0.1c-0.8,0-1.2-0.1-1.2-0.4s0-0.4,0-0.4c0-0.5,0.8-1.4,2.5-2.7
		c1.6-1.3,5.1-3.9,10.4-7.6c5.3-3.7,10.4-6.5,15.2-8.3c4.8-1.8,7.9-2.8,9.2-3c1.3-0.2,2-0.3,2.1-0.5c0.1-0.1,0.1-0.3,0.1-0.4
		c0-0.2,0-0.4,0-0.6c-0.6-2-2.3-4-5.4-6s-5.9-2.9-8.5-2.8c-1.6,0-3.1,0.5-4.3,1.5c-1.3,1-3.9,3.4-7.8,7.1s-6.9,6.7-8.9,8.9
		c-2,2.2-3.4,3.6-4.1,4.3c-0.7,0.6-1.1,1.1-1.3,1.4l-0.9,1.2l-0.6,0.4L-277.7,789.6z"/>
</g>
<g transform="translate(340.8,1482.5) scale(1,-1)">
	<path class="st2" d="M-269,1420.6c3.2-0.5,5-1.4,5.5-2.6c0.4-1.3,0.7-2.2,0.7-2.7s0-0.9,0-1l-0.3-4.1c-0.1-0.1-0.1-0.4,0-0.8
		c0-0.4,0.2-0.7,0.4-0.9c0.2-0.3,0.8-0.4,1.8-0.4l4.4-0.2l5.9-0.2c1.7-0.2,2.8-0.5,3.1-1c0.3-0.5,0.5-1,0.5-1.6
		c-0.1-2-1.4-2.9-4.2-2.7l-10,0.3c-1.4,0-2-0.6-1.9-1.7l0.1-3.2c0-1,0.1-1.7,0.3-1.9s0.7-0.3,1.7-0.3l6.4-0.4l6.6-0.3l5.5-0.3
		c2.1-0.1,4.1-0.1,5.9,0c1.8,0.1,2.8,0.1,3,0.1c0.2-0.1,0.3-0.3,0.3-0.7c0-0.4-0.1-0.9-0.3-1.5c-0.6-1.3-1.8-3-3.8-5.2
		c-2-2.2-4.2-3.3-6.7-3.3c-0.8-0.1-1.5,0-2.2,0.2c-0.7,0.2-2.2,0.8-4.4,1.7c-2.3,0.9-4.7,1.8-7.4,2.5l-3.4,0.9l-1.5,0.2v-1.5
		c0-1-1.9-2.8-5.7-5.2c-3.8-2.4-6.3-4.2-7.4-5.2l-1.9-1.9c-0.8-0.8-1.2-1.4-1.2-1.8s0.8-0.9,2.5-1.4c2.6-0.9,5.1-1.3,7.4-1.3
		c1.8,0,3.8,0.5,5.9,1.5c2.1,1,3.3,1.6,3.6,2c0.3,0.3,0.5,0.6,0.5,0.9c0,0.2-0.3,0.6-0.9,1.2c-2.3,1.8-3.7,3-3.9,3.6
		c-0.3,0.5-0.4,1.1-0.3,1.6c0,2,1.2,3,3.5,3c2.3-0.1,5.1-1.8,8.3-5.3s5.4-6.1,6.7-7.7c1.3-1.7,1.9-3.1,1.8-4.2
		c-0.1-0.6-0.3-1.1-0.8-1.6c-0.5-0.5-0.9-0.7-1.4-0.7c-0.5-0.1-0.9,0-1.2,0.2c-0.3,0.2-1.3,0.9-3.2,2.2l-2.8,1.9
		c-0.6,0.3-1,0.5-1.2,0.5c-0.2,0-0.6-0.2-1.2-0.6c-4.6-3.5-8.4-5.2-11.5-5.2c-0.7-0.1-1.3,0-1.9,0.1s-1.2,0.3-1.8,0.5
		c-0.6,0.2-1.9,0.8-4.1,1.9s-3.9,1.6-5.2,1.6c-1.2-0.1-2.6-0.4-4-0.9s-2.4-0.7-2.9-0.7c-1.4,0.1-2.3,0.6-2.7,1.6
		c-0.4,1-0.6,1.9-0.6,2.8c0,0.9,0.1,1.5,0.3,1.9c0.4,1,1.1,1.7,2.1,2.1l2.3,0.9c2.4,0.9,4.7,2.5,6.8,4.8c2.1,2.3,3.5,4,4.3,5.3
		c0.7,1.3,1.1,2.1,1.1,2.6c-0.1,0.6-1,0.9-2.8,0.7l-2.6-0.2c-3.7-0.3-6.8-0.9-9.2-1.9c-2.4-0.9-3.8-1.4-4.1-1.3
		c-0.8,0.1-1.3,0.3-1.5,0.8c-0.2,0.5-0.3,1-0.3,1.6s0.1,1.2,0.5,2c0.7,1.6,1.7,2.8,3.1,3.8c1.4,0.9,2.4,1.4,3.1,1.5
		c0.2,0,0.8-0.2,2-0.5c1.1-0.4,2.3-0.5,3.6-0.5l2.4,0.2l3.2,0.2l2,0.2c0.9,0.1,1.5,0.2,1.7,0.5c0.2,0.2,0.3,1.1,0.3,2.5
		c0,1.4,0,2.4,0,3.1s-0.1,1.1-0.3,1.3c-0.2,0.2-1.1,0.3-2.5,0.2l-2.4-0.2c-2.2-0.2-3.9-0.5-5.2-0.9c-1.3-0.4-2.1-0.6-2.4-0.5
		c-0.8,0-1.3,0.3-1.6,0.8c-0.2,0.5-0.4,1.1-0.4,1.6c0,0.5,0.2,1.2,0.7,2c0.6,1,1.4,1.7,2.3,2.2s1.6,0.7,2.1,0.7
		c0.1-0.1,0.7-0.2,1.6-0.4c1-0.2,2.5-0.4,4.5-0.4c2-0.1,3.2,0,3.4,0.3c0.2,0.2,0.3,0.7,0.3,1.3c-0.1,0.2-0.1,0.5-0.1,1
		c0,0.5-0.1,1.6-0.2,3.3c-0.1,1.8-0.1,3,0,3.7c0,0.6,0.2,1.3,0.5,2C-272.1,1420-271,1420.5-269,1420.6z M-310.7,1411.3
		c-0.1,0.4,0.1,1.2,0.6,2.4c0.5,1.2,1.7,1.8,3.7,1.9c1.2,0,2.2-0.2,3-0.7s2.3-1.4,4.4-2.8c2.2-1.4,4.3-2.6,6.3-3.7s3.2-1.7,3.4-2.1
		s0.4-0.7,0.4-1c0-0.3-0.3-0.7-0.9-1c-0.9-0.5-2.8-0.7-5.9-0.6C-305.4,1403.9-310.5,1406.4-310.7,1411.3z M-297.5,1394.5l1.8-0.4
		c0.7-0.2,1.1-0.6,1.1-1.2c-0.2-2.3-4.3-3.4-12.3-3.4c-4.9-0.1-8.4,0.7-10.4,2.2s-2.9,3.2-2.8,4.9c0,0.6,0.3,1.4,0.8,2.4
		c0.5,1,1.7,1.5,3.6,1.6c0.7,0,1.3-0.1,1.9-0.4c0.6-0.2,2.7-1.1,6.1-2.6C-304.2,1396.2-300.8,1395.1-297.5,1394.5z M-314.5,1373.4
		c0,1.2,0.2,2,0.6,2.5c0.4,0.5,1.1,0.9,2.1,1.3s3.1,1,6.2,1.9c3.1,0.9,5.5,1.7,7,2.5c1.6,0.8,3.3,1.6,5,2.6s2.9,1.5,3.2,1.5
		c0.5-0.1,0.8-0.4,0.8-0.9c0-0.5,0-0.8,0-1.1c-0.4-1.4-1.3-3.1-2.8-4.9c-1.5-1.9-3.7-4.1-6.7-6.6c-3-2.5-6.3-3.7-10.1-3.6
		C-312.8,1368.6-314.6,1370.2-314.5,1373.4z"/>
</g>
</svg>
